<svg data-v-423bf9ae="" xmlns="http://www.w3.org/2000/svg" viewBox="0 0 500 112" class="iconLeft"><!----><!----><!----><g data-v-423bf9ae="" id="bbcb207d-aa55-41bc-a650-b162e8460773" fill="#23073F" transform="matrix(5.172414048248195,0,0,5.172414048248195,130.3352578190577,21.4176233877183)"><path d="M0.15 1.36L7.14 1.36L7.14 2.60L4.33 2.60L4.33 10.50L2.93 10.50L2.93 2.60L0.15 2.60L0.15 1.36ZM11.28 3.30L11.28 4.47Q11.19 4.44 11.07 4.41L11.07 4.41Q10.98 4.38 10.86 4.36Q10.74 4.34 10.63 4.34L10.63 4.34Q10.02 4.34 9.63 4.61Q9.24 4.89 9.02 5.31Q8.79 5.73 8.70 6.24Q8.61 6.76 8.61 7.25L8.61 7.25L8.61 10.50L7.29 10.50L7.29 3.36L8.41 3.36L8.57 4.47Q8.76 4.12 9.00 3.84Q9.24 3.57 9.56 3.40Q9.88 3.23 10.30 3.20Q10.72 3.16 11.28 3.30L11.28 3.30ZM14.28 3.36L14.28 10.50L12.96 10.50L12.96 3.36L14.28 3.36ZM14.46 1.65L14.46 1.65Q14.46 2.02 14.21 2.27Q13.96 2.52 13.61 2.52L13.61 2.52Q13.24 2.52 12.99 2.27Q12.74 2.02 12.74 1.65L12.74 1.65Q12.74 1.30 12.99 1.05Q13.24 0.80 13.61 0.80L13.61 0.80Q13.96 0.80 14.21 1.05Q14.46 1.30 14.46 1.65ZM20.45 10.67L20.45 10.67Q19.75 10.67 19.10 10.41Q18.45 10.15 18.02 9.58L18.02 9.58L18.02 12.40L16.70 12.40L16.70 3.36L17.81 3.36L18.02 4.37L18.02 4.38Q18.21 4.05 18.55 3.79L18.55 3.79Q18.83 3.57 19.30 3.38Q19.77 3.19 20.45 3.19L20.45 3.19Q21.17 3.19 21.73 3.49Q22.30 3.79 22.69 4.30Q23.09 4.80 23.29 5.48Q23.49 6.16 23.49 6.92L23.49 6.92Q23.49 7.67 23.29 8.35Q23.09 9.03 22.69 9.55Q22.30 10.07 21.73 10.37Q21.17 10.67 20.45 10.67ZM20.16 4.26L20.16 4.26Q19.74 4.26 19.36 4.42Q18.97 4.58 18.68 4.91Q18.38 5.24 18.20 5.74Q18.02 6.24 18.02 6.92L18.02 6.92Q18.02 7.59 18.20 8.09Q18.38 8.60 18.68 8.93Q18.97 9.27 19.36 9.44Q19.74 9.60 20.16 9.60L20.16 9.60Q20.55 9.60 20.90 9.44Q21.25 9.27 21.52 8.93Q21.78 8.60 21.94 8.09Q22.09 7.59 22.09 6.92L22.09 6.92Q22.09 6.24 21.94 5.74Q21.78 5.24 21.52 4.91Q21.25 4.58 20.90 4.42Q20.55 4.26 20.16 4.26ZM35.74 1.34L35.74 1.34L37.24 1.34L34.24 10.50L32.40 10.50L30.66 2.59L29.02 10.50L27.12 10.50L24.16 1.34L25.65 1.34L28.07 9.10L29.67 1.34L31.75 1.34L33.42 9.10L35.74 1.34ZM39.93 3.36L39.93 10.50L38.61 10.50L38.61 3.36L39.93 3.36ZM40.11 1.65L40.11 1.65Q40.11 2.02 39.86 2.27Q39.61 2.52 39.26 2.52L39.26 2.52Q38.89 2.52 38.64 2.27Q38.39 2.02 38.39 1.65L38.39 1.65Q38.39 1.30 38.64 1.05Q38.89 0.80 39.26 0.80L39.26 0.80Q39.61 0.80 39.86 1.05Q40.11 1.30 40.11 1.65ZM46.52 3.91L46.09 4.89Q45.26 4.26 44.35 4.26L44.35 4.26Q43.85 4.26 43.55 4.46Q43.25 4.66 43.25 5.15L43.25 5.15Q43.25 5.40 43.37 5.58Q43.48 5.75 43.68 5.88Q43.88 6.01 44.13 6.10Q44.38 6.20 44.66 6.30L44.66 6.30Q45.02 6.43 45.40 6.58Q45.78 6.73 46.08 6.98Q46.38 7.22 46.57 7.59Q46.76 7.97 46.76 8.54L46.76 8.54Q46.76 9.09 46.56 9.49Q46.35 9.90 46.01 10.16Q45.67 10.42 45.23 10.54Q44.79 10.67 44.32 10.67L44.32 10.67Q43.62 10.67 42.95 10.39Q42.28 10.11 41.80 9.58L41.80 9.58L42.22 8.65Q42.67 9.10 43.24 9.35Q43.81 9.60 44.35 9.60L44.35 9.60Q44.88 9.60 45.23 9.39Q45.57 9.17 45.58 8.67L45.58 8.67Q45.58 8.40 45.47 8.20Q45.35 8.01 45.15 7.86Q44.95 7.71 44.69 7.61Q44.42 7.50 44.14 7.39L44.14 7.39Q43.78 7.27 43.41 7.11Q43.05 6.96 42.76 6.72Q42.46 6.48 42.28 6.12Q42.10 5.75 42.10 5.22L42.10 5.22Q42.10 4.68 42.29 4.29Q42.48 3.91 42.80 3.66Q43.12 3.42 43.54 3.30Q43.96 3.19 44.42 3.19L44.42 3.19Q45.00 3.19 45.54 3.38Q46.07 3.57 46.52 3.91L46.52 3.91ZM51.94 10.67L51.94 10.67Q50.74 10.67 49.99 10.31Q49.24 9.95 48.82 9.39Q48.40 8.83 48.24 8.14Q48.09 7.45 48.09 6.78L48.09 6.78Q48.09 6.10 48.31 5.46Q48.52 4.82 48.94 4.31Q49.35 3.81 49.95 3.50Q50.55 3.19 51.34 3.19L51.34 3.19Q52.28 3.19 52.91 3.52Q53.54 3.85 53.91 4.38Q54.29 4.90 54.45 5.54Q54.60 6.17 54.60 6.78L54.60 6.78L54.60 7.22L49.49 7.22Q49.55 7.90 49.80 8.41L49.80 8.41Q49.91 8.64 50.08 8.86Q50.25 9.07 50.49 9.24Q50.74 9.41 51.06 9.51Q51.38 9.60 51.80 9.60L51.80 9.60Q52.25 9.60 52.65 9.50Q53.05 9.39 53.35 9.27L53.35 9.27Q53.72 9.11 54.03 8.92L54.03 8.92L54.04 10.12Q54.04 10.12 53.88 10.21Q53.72 10.30 53.44 10.40Q53.16 10.50 52.77 10.58Q52.39 10.67 51.94 10.67ZM49.49 6.24L53.20 6.24Q53.20 5.89 53.10 5.54Q52.99 5.18 52.77 4.89Q52.54 4.61 52.19 4.43Q51.84 4.26 51.34 4.26L51.34 4.26Q50.90 4.26 50.56 4.43Q50.22 4.61 49.98 4.89Q49.74 5.18 49.62 5.54Q49.49 5.89 49.49 6.24L49.49 6.24ZM68.46 10.50L67.12 10.50L66.09 8.15L61.68 8.15L60.66 10.50L59.30 10.50L63.13 1.36L64.61 1.36L68.46 10.50ZM63.83 2.69L62.17 6.97L65.59 6.97L63.83 2.69ZM69.87 1.36L71.27 1.36L71.27 10.50L69.87 10.50L69.87 1.36Z"></path></g><defs data-v-423bf9ae=""><linearGradient data-v-423bf9ae="" gradientTransform="rotate(25)" id="ec278861-5718-40ed-8ec2-09955a039156" x1="0%" y1="0%" x2="100%" y2="0%"><stop data-v-423bf9ae="" offset="0%" style="stop-color: rgb(233, 13, 202); stop-opacity: 1;"></stop><stop data-v-423bf9ae="" offset="100%" style="stop-color: rgb(21, 54, 241); stop-opacity: 1;"></stop></linearGradient></defs><g data-v-423bf9ae="" id="359d8c58-7670-4858-8e55-48be83f6504f" transform="matrix(1.1111111111111112,0,0,1.1111111111111112,0.44444444444444287,0.44444444444444287)" stroke="none" fill="url(#ec278861-5718-40ed-8ec2-09955a039156)"><path d="M50 0C22.43 0 0 22.43 0 50s22.43 50 50 50 50-22.43 50-50S77.57 0 50 0zm34.24 21.362c-.515 1.485-2.57 2.992-5.862 4.32-1.31-3.139-2.878-6.08-4.697-8.756-2.444-3.596-5.225-6.549-8.239-8.825A44.728 44.728 0 0184.24 21.362zm-8.39 5.229c-3.593 1.146-8.194 2.094-13.565 2.679-.521-4.174-1.2-8.044-2.03-11.468-1.276-5.265-2.835-9.153-4.657-11.675 8.55 2.346 15.841 9.955 20.252 20.464zM50 5.357c4.187 0 7.814 9.814 9.613 24.165-3.01.249-6.223.389-9.613.389s-6.604-.14-9.613-.389C42.186 15.172 45.813 5.357 50 5.357zM39.746 17.802c-.83 3.424-1.509 7.294-2.03 11.468-5.371-.585-9.973-1.532-13.565-2.679 4.41-10.509 11.7-18.118 20.252-20.464-1.822 2.521-3.381 6.41-4.657 11.675zm-5.187-9.7c-3.015 2.276-5.795 5.229-8.24 8.825-1.82 2.676-3.388 5.617-4.697 8.756-3.292-1.328-5.348-2.835-5.862-4.32A44.708 44.708 0 0134.559 8.102zM19.933 82.998c2.347.862 5.033 1.6 7.943 2.206 2.046 2.646 4.289 4.888 6.683 6.694a44.644 44.644 0 01-14.626-8.9zm12.078 2.959c2.923.462 5.991.807 9.103 1.034.975 2.905 2.073 5.199 3.289 6.882-4.573-1.255-8.786-4.01-12.392-7.916zM50 94.643c-2.217 0-4.277-2.756-5.994-7.476 2.004.099 4.011.149 5.994.149 2.04 0 4.038-.048 5.988-.137-1.715 4.713-3.773 7.464-5.988 7.464zm8.877-7.625c3.192-.221 6.224-.561 9.057-1.003-3.593 3.874-7.786 6.61-12.337 7.858 1.212-1.678 2.307-3.961 3.28-6.855zm6.564 4.88c2.377-1.794 4.603-4.017 6.638-6.638 2.967-.621 5.641-1.366 7.944-2.221a44.628 44.628 0 01-14.582 8.859zm20.925-16.021l-.042-.022c-1.185 2.19-5.433 4.417-11.906 6.082 3.898-6.118 6.561-13.489 7.806-21.463.376-.105.756-.209 1.122-.318 4.854-1.443 8.538-3.143 10.997-5.042a44.376 44.376 0 01-7.977 20.763zm2.935-20.852l-3.062 1.994c-.278.182-4.121 2.656-9.624 4.793a89.945 89.945 0 002.776-.608c-1.479 8.421-4.591 15.874-8.806 21.597-3.236.638-6.884 1.141-10.868 1.458.183-.664.362-1.346.536-2.061 1.203-4.964 2.089-10.863 2.63-17.279-.438.019-.876.03-1.315.03h-1.38c-.662 7.683-1.812 14.412-3.308 19.502a127.544 127.544 0 01-13.761.005c-1.496-5.09-2.646-11.82-3.308-19.506h-2.692c.542 6.404 1.426 12.293 2.627 17.248.174.719.355 1.404.54 2.072-3.987-.31-7.622-.803-10.842-1.429-3.638-4.927-6.449-11.146-8.111-18.159-1-.079-1.933-.177-2.805-.293 1.432 6.488 3.821 12.486 7.088 17.599-6.793-1.73-11.104-4.092-12.074-6.413l-.095.039a44.382 44.382 0 01-7.79-20.501 20.224 20.224 0 002.335 1.53c.066-.99.366-1.865.833-2.629-1.612-.972-2.777-1.98-3.441-2.993-.009-.341-.027-.678-.027-1.021a44.428 44.428 0 018.63-26.373c1.255 1.748 3.596 3.253 6.679 4.503-2.162 5.965-3.409 12.565-3.651 19.428.798-.45 1.708-.851 2.738-1.16.34-6.23 1.54-12.103 3.439-17.35 4.035 1.311 8.961 2.266 14.221 2.852a168.674 168.674 0 00-.857 13.705c.933.005 1.833.013 2.677.02.112-4.743.404-9.268.848-13.459a116.181 116.181 0 0019.838 0c.212 2.006.39 4.09.529 6.236h2.672a162.319 162.319 0 00-.534-6.502c5.261-.586 10.187-1.541 14.222-2.852a58.619 58.619 0 012.595 9.831h2.722c-.624-3.743-1.558-7.349-2.79-10.749 3.084-1.25 5.424-2.755 6.68-4.503A44.434 44.434 0 0194.644 50c0 .343-.018.68-.025 1.021-.901 1.371-2.719 2.734-5.318 4.004z"></path><path d="M28.987 60.897c13.854 0 25.381-.002 32.58-.003 11.298 0 22.46-7.27 22.46-7.27l-3.605-.816 3.655-9.877h-5.079l-9.3 8.529-9.298-.902 4.64-8.102h-6.508l-13.867 7.287s-16.292-.272-21.398.107c-5.373.397-7.414 4.236-7.414 4.236s-3.827.809-3.828 2.965c-.001 2.156 4.573 3.845 16.962 3.846z"></path></g><!----></svg>